<svg xmlns="http://www.w3.org/2000/svg" xmlns:xlink="http://www.w3.org/1999/xlink" width="378" zoomAndPan="magnify" viewBox="0 0 283.5 283.500005" height="378" preserveAspectRatio="xMidYMid meet" version="1.0"><defs><clipPath id="1feb4ac85a"><path d="M 28.300781 30 L 254.429688 30 L 254.429688 256.8125 L 28.300781 256.8125 Z M 28.300781 30 " clip-rule="nonzero"/></clipPath><clipPath id="749d8119c7"><path d="M 28.300781 30 L 254.429688 30 L 254.429688 118 L 28.300781 118 Z M 28.300781 30 " clip-rule="nonzero"/></clipPath><clipPath id="bb6c6872cf"><path d="M 80 12.714844 L 98 12.714844 L 98 57 L 80 57 Z M 80 12.714844 " clip-rule="nonzero"/></clipPath><clipPath id="16a97835ee"><path d="M 184 12.714844 L 203 12.714844 L 203 57 L 184 57 Z M 184 12.714844 " clip-rule="nonzero"/></clipPath><clipPath id="405d5f8ce2"><path d="M 60.644531 134.597656 L 141.511719 134.597656 L 141.511719 215.464844 L 60.644531 215.464844 Z M 60.644531 134.597656 " clip-rule="nonzero"/></clipPath><clipPath id="584e441c6b"><path d="M 141 175 L 141.511719 175 L 141.511719 176 L 141 176 Z M 141 175 " clip-rule="nonzero"/></clipPath><clipPath id="e5ef8280f5"><path d="M 92 160 L 141.511719 160 L 141.511719 215 L 92 215 Z M 92 160 " clip-rule="nonzero"/></clipPath></defs><g clip-path="url(#1feb4ac85a)"><path fill="#eaeaea" d="M 254.40625 73.738281 C 254.40625 62.175781 249.820312 51.09375 241.667969 42.917969 C 233.515625 34.746094 222.460938 30.148438 210.929688 30.148438 C 172.324219 30.148438 110.40625 30.148438 71.800781 30.148438 C 60.269531 30.148438 49.214844 34.746094 41.0625 42.917969 C 32.910156 51.09375 28.324219 62.175781 28.324219 73.738281 C 28.324219 112.441406 28.324219 174.523438 28.324219 213.222656 C 28.324219 224.785156 32.910156 235.871094 41.0625 244.042969 C 49.214844 252.214844 60.269531 256.8125 71.800781 256.8125 C 110.40625 256.8125 172.324219 256.8125 210.929688 256.8125 C 222.460938 256.8125 233.515625 252.214844 241.667969 244.042969 C 249.820312 235.871094 254.40625 224.785156 254.40625 213.222656 L 254.40625 73.738281 " fill-opacity="1" fill-rule="evenodd"/></g><g clip-path="url(#749d8119c7)"><path fill="#3fc1c9" d="M 254.40625 73.738281 C 254.40625 62.175781 249.820312 51.09375 241.667969 42.917969 C 233.515625 34.746094 222.460938 30.148438 210.929688 30.148438 C 172.324219 30.148438 110.40625 30.148438 71.800781 30.148438 C 60.269531 30.148438 49.214844 34.746094 41.0625 42.917969 C 32.910156 51.09375 28.324219 62.175781 28.324219 73.738281 L 28.324219 117.328125 L 254.40625 117.328125 L 254.40625 73.738281 " fill-opacity="1" fill-rule="evenodd"/></g><path fill="#eaeaea" d="M 89.191406 82.457031 L 193.539062 82.457031 C 198.34375 82.457031 202.234375 78.558594 202.234375 73.738281 C 202.234375 68.917969 198.34375 65.019531 193.539062 65.019531 L 89.191406 65.019531 C 84.386719 65.019531 80.496094 68.917969 80.496094 73.738281 C 80.496094 78.558594 84.386719 82.457031 89.191406 82.457031 " fill-opacity="1" fill-rule="evenodd"/><g clip-path="url(#bb6c6872cf)"><path fill="#364f6b" d="M 97.886719 47.585938 L 97.886719 21.429688 C 97.886719 16.613281 94 12.714844 89.191406 12.714844 C 84.386719 12.714844 80.496094 16.613281 80.496094 21.429688 L 80.496094 47.585938 C 80.496094 52.402344 84.386719 56.300781 89.191406 56.300781 C 94 56.300781 97.886719 52.402344 97.886719 47.585938 " fill-opacity="1" fill-rule="evenodd"/></g><g clip-path="url(#16a97835ee)"><path fill="#364f6b" d="M 202.234375 47.585938 L 202.234375 21.429688 C 202.234375 16.613281 198.34375 12.714844 193.539062 12.714844 C 188.730469 12.714844 184.84375 16.613281 184.84375 21.429688 L 184.84375 47.585938 C 184.84375 52.402344 188.730469 56.300781 193.539062 56.300781 C 198.34375 56.300781 202.234375 52.402344 202.234375 47.585938 " fill-opacity="1" fill-rule="evenodd"/></g><path fill="#3fc1c9" d="M 89.191406 183.460938 L 117.824219 154.753906 C 121.222656 151.347656 126.726562 151.347656 130.121094 154.753906 C 133.519531 158.160156 133.519531 163.675781 130.121094 167.082031 L 95.339844 201.953125 C 91.945312 205.359375 86.441406 205.359375 83.042969 201.953125 L 65.652344 184.515625 C 62.257812 181.109375 62.257812 175.59375 65.652344 172.1875 C 69.050781 168.785156 74.554688 168.785156 77.949219 172.1875 L 89.191406 183.460938 " fill-opacity="1" fill-rule="evenodd"/><path fill="#3fc1c9" d="M 158.753906 187.070312 L 210.929688 187.070312 C 215.734375 187.070312 219.625 183.171875 219.625 178.351562 C 219.625 173.535156 215.734375 169.636719 210.929688 169.636719 L 158.753906 169.636719 C 153.949219 169.636719 150.058594 173.535156 150.058594 178.351562 C 150.058594 183.171875 153.949219 187.070312 158.753906 187.070312 " fill-opacity="1" fill-rule="evenodd"/><g clip-path="url(#405d5f8ce2)"><path fill="#3fc1c9" d="M 141.5 175.027344 C 141.5 197.355469 123.398438 215.453125 101.070312 215.453125 C 78.742188 215.453125 60.644531 197.355469 60.644531 175.027344 C 60.644531 152.699219 78.742188 134.597656 101.070312 134.597656 C 123.398438 134.597656 141.5 152.699219 141.5 175.027344 " fill-opacity="1" fill-rule="nonzero"/></g><g clip-path="url(#584e441c6b)"><path fill="#d4d3d2" d="M 141.492188 175.832031 L 141.492188 175.832031 M 141.492188 175.804688 L 141.492188 175.800781 L 141.492188 175.804688 M 141.492188 175.71875 C 141.492188 175.714844 141.492188 175.714844 141.492188 175.714844 L 141.492188 175.71875 M 141.492188 175.6875 L 141.492188 175.6875 M 141.492188 175.660156 L 141.492188 175.660156 M 141.496094 175.601562 L 141.496094 175.601562 M 141.496094 175.574219 L 141.496094 175.570312 L 141.496094 175.574219 M 141.496094 175.542969 L 141.496094 175.542969 M 141.496094 175.488281 L 141.496094 175.484375 C 141.496094 175.488281 141.496094 175.488281 141.496094 175.488281 M 141.496094 175.460938 C 141.496094 175.457031 141.496094 175.457031 141.496094 175.457031 C 141.496094 175.457031 141.496094 175.457031 141.496094 175.460938 M 141.496094 175.429688 C 141.496094 175.429688 141.496094 175.429688 141.496094 175.425781 C 141.496094 175.429688 141.496094 175.429688 141.496094 175.429688 M 141.496094 175.402344 C 141.496094 175.398438 141.496094 175.398438 141.496094 175.398438 L 141.496094 175.402344 M 141.496094 175.375 C 141.496094 175.371094 141.496094 175.371094 141.496094 175.371094 C 141.496094 175.371094 141.496094 175.371094 141.496094 175.375 M 141.496094 175.34375 C 141.496094 175.34375 141.496094 175.34375 141.496094 175.339844 C 141.496094 175.34375 141.496094 175.34375 141.496094 175.34375 M 141.5 175.316406 C 141.5 175.3125 141.5 175.3125 141.5 175.3125 C 141.5 175.3125 141.5 175.3125 141.5 175.316406 M 141.5 175.285156 L 141.5 175.285156 M 141.5 175.257812 C 141.5 175.257812 141.5 175.257812 141.5 175.253906 C 141.5 175.257812 141.5 175.257812 141.5 175.257812 M 141.5 175.230469 C 141.5 175.230469 141.5 175.226562 141.5 175.226562 C 141.5 175.226562 141.5 175.230469 141.5 175.230469 M 141.5 175.203125 C 141.5 175.199219 141.5 175.199219 141.5 175.195312 C 141.5 175.199219 141.5 175.199219 141.5 175.203125 M 141.5 175.171875 L 141.5 175.167969 C 141.5 175.167969 141.5 175.167969 141.5 175.171875 M 141.5 175.140625 L 141.5 175.140625 M 141.5 175.113281 C 141.5 175.113281 141.5 175.113281 141.5 175.109375 C 141.5 175.113281 141.5 175.113281 141.5 175.113281 M 141.5 175.085938 C 141.5 175.085938 141.5 175.082031 141.5 175.082031 C 141.5 175.082031 141.5 175.082031 141.5 175.085938 M 141.5 175.054688 L 141.5 175.050781 C 141.5 175.054688 141.5 175.054688 141.5 175.054688 " fill-opacity="1" fill-rule="nonzero"/></g><g clip-path="url(#e5ef8280f5)"><path fill="#0fa8b2" d="M 108.816406 214.710938 L 92.058594 197.953125 L 129.355469 160.65625 L 141.433594 172.734375 C 141.476562 173.492188 141.5 174.257812 141.5 175.027344 C 141.5 175.035156 141.5 175.042969 141.5 175.050781 L 141.5 175.054688 C 141.5 175.066406 141.5 175.074219 141.5 175.082031 C 141.5 175.082031 141.5 175.085938 141.5 175.085938 C 141.5 175.09375 141.5 175.101562 141.5 175.109375 C 141.5 175.113281 141.5 175.113281 141.5 175.113281 C 141.5 175.121094 141.5 175.132812 141.5 175.140625 C 141.5 175.152344 141.5 175.160156 141.5 175.167969 L 141.5 175.171875 C 141.5 175.179688 141.5 175.1875 141.5 175.195312 C 141.5 175.199219 141.5 175.199219 141.5 175.203125 C 141.5 175.210938 141.5 175.21875 141.5 175.226562 C 141.5 175.226562 141.5 175.230469 141.5 175.230469 C 141.5 175.238281 141.5 175.246094 141.5 175.253906 C 141.5 175.257812 141.5 175.257812 141.5 175.257812 C 141.5 175.265625 141.5 175.277344 141.5 175.285156 C 141.5 175.292969 141.5 175.304688 141.5 175.3125 C 141.5 175.3125 141.5 175.3125 141.5 175.316406 C 141.5 175.324219 141.496094 175.332031 141.496094 175.339844 C 141.496094 175.34375 141.496094 175.34375 141.496094 175.34375 C 141.496094 175.351562 141.496094 175.363281 141.496094 175.371094 C 141.496094 175.371094 141.496094 175.371094 141.496094 175.375 C 141.496094 175.382812 141.496094 175.390625 141.496094 175.398438 C 141.496094 175.398438 141.496094 175.398438 141.496094 175.402344 C 141.496094 175.410156 141.496094 175.417969 141.496094 175.425781 C 141.496094 175.429688 141.496094 175.429688 141.496094 175.429688 C 141.496094 175.4375 141.496094 175.449219 141.496094 175.457031 C 141.496094 175.457031 141.496094 175.457031 141.496094 175.460938 C 141.496094 175.46875 141.496094 175.476562 141.496094 175.484375 L 141.496094 175.488281 C 141.496094 175.496094 141.496094 175.507812 141.496094 175.515625 C 141.496094 175.523438 141.496094 175.53125 141.496094 175.542969 C 141.496094 175.554688 141.496094 175.5625 141.496094 175.570312 L 141.496094 175.574219 C 141.496094 175.585938 141.496094 175.589844 141.496094 175.601562 C 141.496094 175.621094 141.492188 175.636719 141.492188 175.660156 C 141.492188 175.667969 141.492188 175.675781 141.492188 175.6875 C 141.492188 175.699219 141.492188 175.707031 141.492188 175.714844 C 141.492188 175.714844 141.492188 175.714844 141.492188 175.71875 C 141.492188 175.746094 141.492188 175.773438 141.492188 175.800781 L 141.492188 175.804688 C 141.492188 175.8125 141.492188 175.820312 141.492188 175.832031 C 141.488281 175.859375 141.488281 175.886719 141.488281 175.917969 C 141.488281 175.925781 141.488281 175.9375 141.488281 175.945312 C 141.058594 195.214844 127.148438 211.152344 108.816406 214.710938 " fill-opacity="1" fill-rule="nonzero"/></g><path fill="#feffff" d="M 72.785156 178.957031 L 81.691406 170.050781 L 92.269531 180.628906 L 120.796875 152.097656 L 129.355469 160.65625 L 92.058594 197.953125 L 72.785156 178.957031 " fill-opacity="1" fill-rule="nonzero"/></svg>